<?xml version="1.0" encoding="UTF-8" standalone="no"?>
<svg
   class="main-svg"
   width="1200"
   height="600"
   style=""
   viewBox="0 0 1200 600"
   version="1.1"
   id="svg154"
   sodipodi:docname="adaptive_snorm.svg"
   inkscape:export-filename="adaptive_snorm.pdf"
   inkscape:export-xdpi="96"
   inkscape:export-ydpi="96"
   inkscape:version="1.4 (e7c3feb100, 2024-10-09)"
   xmlns:inkscape="http://www.inkscape.org/namespaces/inkscape"
   xmlns:sodipodi="http://sodipodi.sourceforge.net/DTD/sodipodi-0.dtd"
   xmlns="http://www.w3.org/2000/svg"
   xmlns:svg="http://www.w3.org/2000/svg">
  <sodipodi:namedview
     id="namedview154"
     pagecolor="#ffffff"
     bordercolor="#111111"
     borderopacity="1"
     inkscape:showpageshadow="0"
     inkscape:pageopacity="0"
     inkscape:pagecheckerboard="1"
     inkscape:deskcolor="#d1d1d1"
     showgrid="false"
     inkscape:zoom="0.89333333"
     inkscape:cx="592.16418"
     inkscape:cy="228.35821"
     inkscape:window-width="1920"
     inkscape:window-height="1047"
     inkscape:window-x="0"
     inkscape:window-y="33"
     inkscape:window-maximized="1"
     inkscape:current-layer="svg154" />
  <rect
     x="0"
     y="0"
     width="1200"
     height="600"
     style="fill: rgb(255, 255, 255); fill-opacity: 1;"
     id="rect1" />
  <defs
     id="defs-6f5a31">
    <g
       class="clips"
       id="g11">
      <clipPath
         id="clip6f5a31xyplot"
         class="plotclip">
        <rect
           width="1110"
           height="539"
           id="rect2" />
      </clipPath>
      <clipPath
         id="clip6f5a31x2y2plot"
         class="plotclip">
        <rect
           width="610.4999999999999"
           height="296.45"
           id="rect3" />
      </clipPath>
      <clipPath
         class="axesclip"
         id="clip6f5a31x">
        <rect
           x="66"
           y="0"
           width="1110"
           height="600"
           id="rect4" />
      </clipPath>
      <clipPath
         class="axesclip"
         id="clip6f5a31y">
        <rect
           x="0"
           y="10"
           width="1200"
           height="539"
           id="rect5" />
      </clipPath>
      <clipPath
         class="axesclip"
         id="clip6f5a31xy">
        <rect
           x="66"
           y="10"
           width="1110"
           height="539"
           id="rect6" />
      </clipPath>
      <clipPath
         class="axesclip"
         id="clip6f5a31y2">
        <rect
           x="0"
           y="36.950000000000024"
           width="1200"
           height="296.45"
           id="rect7" />
      </clipPath>
      <clipPath
         class="axesclip"
         id="clip6f5a31xy2">
        <rect
           x="66"
           y="36.950000000000024"
           width="1110"
           height="296.45"
           id="rect8" />
      </clipPath>
      <clipPath
         class="axesclip"
         id="clip6f5a31x2">
        <rect
           x="510"
           y="0"
           width="610.4999999999999"
           height="600"
           id="rect9" />
      </clipPath>
      <clipPath
         class="axesclip"
         id="clip6f5a31x2y">
        <rect
           x="510"
           y="10"
           width="610.4999999999999"
           height="539"
           id="rect10" />
      </clipPath>
      <clipPath
         class="axesclip"
         id="clip6f5a31x2y2">
        <rect
           x="510"
           y="36.950000000000024"
           width="610.4999999999999"
           height="296.45"
           id="rect11" />
      </clipPath>
    </g>
    <g
       class="gradients"
       id="g12" />
    <g
       class="patterns"
       id="g13" />
  </defs>
  <g
     class="bglayer"
     id="g14" />
  <g
     class="layer-below"
     id="g17">
    <g
       class="imagelayer"
       id="g15" />
    <g
       class="shapelayer"
       id="g16" />
  </g>
  <g
     class="cartesianlayer"
     id="g131">
    <g
       class="subplot xy"
       id="g74">
      <g
         class="layer-subplot"
         id="g20">
        <g
           class="shapelayer"
           id="g18" />
        <g
           class="imagelayer"
           id="g19" />
      </g>
      <g
         class="minor-gridlayer"
         id="g23">
        <g
           class="x"
           id="g21" />
        <g
           class="y"
           id="g22" />
      </g>
      <g
         class="gridlayer"
         id="g36">
        <g
           class="x"
           id="g29">
          <path
             class="xgrid crisp"
             transform="translate(204.75,0)"
             d="M0,10v539"
             style="stroke: rgb(0, 0, 0); stroke-opacity: 0.5; stroke-width: 1px;"
             id="path23" />
          <path
             class="xgrid crisp"
             transform="translate(343.51,0)"
             d="M0,10v539"
             style="stroke: rgb(0, 0, 0); stroke-opacity: 0.5; stroke-width: 1px;"
             id="path24" />
          <path
             class="xgrid crisp"
             transform="translate(482.26,0)"
             d="M0,10v539"
             style="stroke: rgb(0, 0, 0); stroke-opacity: 0.5; stroke-width: 1px;"
             id="path25" />
          <path
             class="xgrid crisp"
             transform="translate(621.01,0)"
             d="M0,10v539"
             style="stroke: rgb(0, 0, 0); stroke-opacity: 0.5; stroke-width: 1px;"
             id="path26" />
          <path
             class="xgrid crisp"
             transform="translate(759.77,0)"
             d="M0,10v539"
             style="stroke: rgb(0, 0, 0); stroke-opacity: 0.5; stroke-width: 1px;"
             id="path27" />
          <path
             class="xgrid crisp"
             transform="translate(898.52,0)"
             d="M0,10v539"
             style="stroke: rgb(0, 0, 0); stroke-opacity: 0.5; stroke-width: 1px;"
             id="path28" />
          <path
             class="xgrid crisp"
             transform="translate(1037.27,0)"
             d="M0,10v539"
             style="stroke: rgb(0, 0, 0); stroke-opacity: 0.5; stroke-width: 1px;"
             id="path29" />
        </g>
        <g
           class="y"
           id="g35">
          <path
             class="ygrid crisp"
             transform="translate(0,457.05)"
             d="M66,0h1110"
             style="stroke: rgb(0, 0, 0); stroke-opacity: 0.5; stroke-width: 1px;"
             id="path30" />
          <path
             class="ygrid crisp"
             transform="translate(0,374.87)"
             d="M66,0h1110"
             style="stroke: rgb(0, 0, 0); stroke-opacity: 0.5; stroke-width: 1px;"
             id="path31" />
          <path
             class="ygrid crisp"
             transform="translate(0,292.7)"
             d="M66,0h1110"
             style="stroke: rgb(0, 0, 0); stroke-opacity: 0.5; stroke-width: 1px;"
             id="path32" />
          <path
             class="ygrid crisp"
             transform="translate(0,210.52)"
             d="M66,0h1110"
             style="stroke: rgb(0, 0, 0); stroke-opacity: 0.5; stroke-width: 1px;"
             id="path33" />
          <path
             class="ygrid crisp"
             transform="translate(0,128.34)"
             d="M66,0h1110"
             style="stroke: rgb(0, 0, 0); stroke-opacity: 0.5; stroke-width: 1px;"
             id="path34" />
          <path
             class="ygrid crisp"
             transform="translate(0,46.16)"
             d="M66,0h1110"
             style="stroke: rgb(0, 0, 0); stroke-opacity: 0.5; stroke-width: 1px;"
             id="path35" />
        </g>
      </g>
      <g
         class="zerolinelayer"
         id="g37">
        <path
           class="xzl zl crisp"
           transform="translate(66,0)"
           d="M0,10v539"
           style="stroke: rgb(0, 0, 0); stroke-opacity: 0.5; stroke-width: 2px;"
           id="path36" />
        <path
           class="yzl zl crisp"
           transform="translate(0,539.23)"
           d="M66,0h1110"
           style="stroke: rgb(0, 0, 0); stroke-opacity: 0.5; stroke-width: 2px;"
           id="path37" />
      </g>
      <g
         class="layer-between"
         id="g40">
        <g
           class="shapelayer"
           id="g38" />
        <g
           class="imagelayer"
           id="g39" />
      </g>
      <path
         class="xlines-below"
         id="path40" />
      <path
         class="ylines-below"
         id="path41" />
      <g
         class="overlines-below"
         id="g41" />
      <g
         class="xaxislayer-below"
         id="g42" />
      <g
         class="yaxislayer-below"
         id="g43" />
      <g
         class="overaxes-below"
         id="g44" />
      <g
         class="overplot"
         id="g53">
        <g
           class="xy"
           transform="translate(66,10)"
           clip-path="url(#clip6f5a31xyplot)"
           id="g52">
          <g
             class="scatterlayer mlayer"
             id="g51">
            <g
               class="trace scatter trace47043a"
               style="stroke-miterlimit: 2; opacity: 1;"
               id="g50">
              <g
                 class="fills"
                 id="g45" />
              <g
                 class="errorbars"
                 id="g46" />
              <g
                 class="lines"
                 id="g47">
                <path
                   class="js-line"
                   d="M0,10.93L1.11,476.63L1.14,478.49L2.8,519.57L2.83,519.71L4.44,522.59L4.47,522.59L7.8,522.18L7.83,522.17L15.35,521.81L15.37,521.82L20.01,523.76L20.04,523.77L21.31,522.99L21.34,522.94L22.7,517.8L22.73,517.64L27,493.9L27.17,494L27.2,494.03L28.28,497.07L28.31,497.19L33.91,520.04L33.94,520.09L36.99,523.77L37.02,523.79L41.13,525.27L41.15,525.28L50.81,525.72L50.84,525.71L57.89,525.67L57.92,525.67L63.44,525.66L63.47,525.66L118.13,526.63L118.16,526.64L130.57,527.02L130.59,527.02L173.86,526.19L173.89,526.18L184.46,525.66L184.49,525.66L225.72,524.77L225.75,524.77L238.77,525.12L238.79,525.13L257.78,526.1L257.8,526.13L259.55,526.22L259.58,526.24L261.19,526.15L261.22,526.19L261.25,526.23L264.13,526.39L264.16,526.35L266.82,526.47L266.85,526.44L268.46,526.78L268.49,526.75L268.52,526.7L269.54,526.57L269.65,526.75L269.68,526.81L271.35,526.7L271.46,526.93L271.49,526.98L272.65,526.74L272.76,526.97L272.79,527.03L273.98,526.82L274.15,527.15L274.18,527.16L275.29,526.87L275.37,527.02L275.4,527.1L277.59,527.18L277.62,527.26L279.34,527.22L279.42,527.44L279.45,527.48L280.59,527.14L280.67,527.32L280.7,527.4L282.39,527.29L282.47,527.52L282.5,527.59L283.7,527.31L283.81,527.61L283.83,527.68L285,527.35L285.11,527.62L285.14,527.69L286.33,527.42L286.47,527.77L286.5,527.82L287.64,527.47L287.75,527.69L287.77,527.78L289.47,527.64L289.52,527.8L289.55,527.87L290.74,527.6L290.91,527.98L290.94,528L292.05,527.64L292.16,527.85L292.19,527.92L294.38,527.94L294.41,528L296.07,527.81L296.1,527.86L296.13,527.93L320.88,527.07L320.91,527.05L322.55,527.09L322.57,527.06L322.6,527.02L330.57,526.51L330.59,526.5L332.2,526.54L332.23,526.5L336.42,526.27L336.45,526.3L339.89,526.05L339.92,526.07L360.04,525.18L360.07,525.19L369.56,524.9L369.58,524.9L385.4,524.69L385.43,524.69L403.91,524.85L403.94,524.85L512.11,524.77L512.14,524.76L580.24,525.71L580.27,525.73L581.4,525.51L581.6,525.75L581.63,525.74L582.74,525.54L582.85,525.7L582.88,525.74L584.51,525.57L584.57,525.65L584.6,525.7L587.32,525.82L587.34,525.83L588.48,525.62L588.56,525.75L588.59,525.79L590.73,525.71L590.76,525.75L595.22,525.87L595.25,525.89L596.42,525.69L596.56,525.88L596.58,525.89L597.72,525.68L597.86,525.87L597.89,525.89L599.44,525.67L599.47,525.68L600.58,525.88L600.72,525.7L600.75,525.68L602.33,525.89L602.36,525.86L603.44,525.7L603.63,525.89L603.66,525.88L604.77,525.71L604.91,525.87L604.94,525.88L606.52,525.7L606.55,525.73L608.07,525.84L608.1,525.81L609.77,525.85L609.79,525.85L611.38,525.71L611.4,525.74L614.29,525.73L614.32,525.7L617.31,525.76L617.34,525.73L622.45,525.71L622.48,525.73L625,525.64L625.03,525.66L648.23,525.57L648.26,525.57L658.69,525.62L658.72,525.63L676.56,525.82L676.59,525.82L701.45,525.95L701.48,525.95L749.3,524.95L749.32,524.94L763.7,524.66L763.73,524.65L830.05,525.49L830.08,525.5L833.49,525.6L833.52,525.61L855.69,526.58L855.72,526.59L857.3,526.45L857.33,526.47L858.77,526.66L858.8,526.68L860.47,526.61L860.49,526.65L867.82,526.78L867.85,526.75L870.04,526.81L870.07,526.78L872.26,526.84L872.29,526.81L874.48,526.86L874.51,526.84L877.06,526.95L877.09,526.92L883.11,527.09L883.14,527.12L883.64,526.12L883.67,526.1L884.86,526.56L884.89,526.59L887.3,526.63L887.33,526.61L890.8,526.85L890.83,526.83L893.77,526.79L893.79,526.81L897.24,526.63L897.26,526.65L901.04,526.57L901.07,526.54L905.01,526.46L905.03,526.43L912.14,526.2L912.17,526.19L914.19,526.23L914.22,526.21L920.66,526.05L920.68,526.06L924.54,525.92L924.57,525.94L937.72,525.72L937.75,525.73L944.8,525.68L944.83,525.68L952.29,525.67L952.32,525.67L970.03,525.86L970.05,525.87L1003.96,526.87L1003.99,526.88L1052.28,526.19L1052.31,526.18L1062.88,525.66L1062.91,525.66L1104.2,524.77L1104.23,524.77L1110,524.88"
                   style="vector-effect: none; fill: none; stroke: rgb(99, 110, 250); stroke-opacity: 1; stroke-width: 4px; opacity: 1;"
                   id="path46" />
              </g>
              <g
                 class="points"
                 id="g48" />
              <g
                 class="text"
                 id="g49" />
            </g>
          </g>
        </g>
      </g>
      <path
         class="xlines-above crisp"
         d="M0,0"
         style="fill: none;"
         id="path53" />
      <path
         class="ylines-above crisp"
         d="M0,0"
         style="fill: none;"
         id="path54" />
      <g
         class="overlines-above"
         id="g54" />
      <g
         class="xaxislayer-above"
         id="g64">
        <g
           class="xtick"
           id="g55">
          <text
             text-anchor="middle"
             x="0"
             y="562"
             transform="translate(66,0)"
             style="font-family: 'Open Sans', verdana, arial, sans-serif; font-size: 12px; fill: rgb(42, 63, 95); fill-opacity: 1; white-space: pre; opacity: 1;"
             id="text54">£0£</text>
        </g>
        <g
           class="xtick"
           id="g56">
          <text
             text-anchor="middle"
             x="0"
             y="562"
             style="font-family: 'Open Sans', verdana, arial, sans-serif; font-size: 12px; fill: rgb(42, 63, 95); fill-opacity: 1; white-space: pre; opacity: 1;"
             transform="translate(204.75,0)"
             id="text55">£5£</text>
        </g>
        <g
           class="xtick"
           id="g57">
          <text
             text-anchor="middle"
             x="0"
             y="562"
             style="font-family: 'Open Sans', verdana, arial, sans-serif; font-size: 12px; fill: rgb(42, 63, 95); fill-opacity: 1; white-space: pre; opacity: 1;"
             transform="translate(343.51,0)"
             id="text56">£10£</text>
        </g>
        <g
           class="xtick"
           id="g58">
          <text
             text-anchor="middle"
             x="0"
             y="562"
             style="font-family: 'Open Sans', verdana, arial, sans-serif; font-size: 12px; fill: rgb(42, 63, 95); fill-opacity: 1; white-space: pre; opacity: 1;"
             transform="translate(482.26,0)"
             id="text57">£15£</text>
        </g>
        <g
           class="xtick"
           id="g59">
          <text
             text-anchor="middle"
             x="0"
             y="562"
             style="font-family: 'Open Sans', verdana, arial, sans-serif; font-size: 12px; fill: rgb(42, 63, 95); fill-opacity: 1; white-space: pre; opacity: 1;"
             transform="translate(621.01,0)"
             id="text58">£20£</text>
        </g>
        <g
           class="xtick"
           id="g60">
          <text
             text-anchor="middle"
             x="0"
             y="562"
             style="font-family: 'Open Sans', verdana, arial, sans-serif; font-size: 12px; fill: rgb(42, 63, 95); fill-opacity: 1; white-space: pre; opacity: 1;"
             transform="translate(759.77,0)"
             id="text59">£25£</text>
        </g>
        <g
           class="xtick"
           id="g61">
          <text
             text-anchor="middle"
             x="0"
             y="562"
             style="font-family: 'Open Sans', verdana, arial, sans-serif; font-size: 12px; fill: rgb(42, 63, 95); fill-opacity: 1; white-space: pre; opacity: 1;"
             transform="translate(898.52,0)"
             id="text60">£30£</text>
        </g>
        <g
           class="xtick"
           id="g62">
          <text
             text-anchor="middle"
             x="0"
             y="562"
             style="font-family: 'Open Sans', verdana, arial, sans-serif; font-size: 12px; fill: rgb(42, 63, 95); fill-opacity: 1; white-space: pre; opacity: 1;"
             transform="translate(1037.27,0)"
             id="text61">£35£</text>
        </g>
        <g
           class="xtick"
           id="g63">
          <text
             text-anchor="middle"
             x="0"
             y="562"
             style="font-family: 'Open Sans', verdana, arial, sans-serif; font-size: 12px; fill: rgb(42, 63, 95); fill-opacity: 1; white-space: pre; opacity: 1;"
             transform="translate(1176.03,0)"
             id="text62">£40£</text>
        </g>
      </g>
      <g
         class="yaxislayer-above"
         id="g72">
        <g
           class="ytick"
           id="g65">
          <text
             text-anchor="end"
             x="65"
             y="4.199999999999999"
             transform="translate(0,539.23)"
             style="font-family: 'Open Sans', verdana, arial, sans-serif; font-size: 12px; fill: rgb(42, 63, 95); fill-opacity: 1; white-space: pre; opacity: 1;"
             id="text64">£0£</text>
        </g>
        <g
           class="ytick"
           id="g66">
          <text
             text-anchor="end"
             x="65"
             y="4.199999999999999"
             style="font-family: 'Open Sans', verdana, arial, sans-serif; font-size: 12px; fill: rgb(42, 63, 95); fill-opacity: 1; white-space: pre; opacity: 1;"
             transform="translate(0,457.05)"
             id="text65">£0.2£</text>
        </g>
        <g
           class="ytick"
           id="g67">
          <text
             text-anchor="end"
             x="65"
             y="4.199999999999999"
             style="font-family: 'Open Sans', verdana, arial, sans-serif; font-size: 12px; fill: rgb(42, 63, 95); fill-opacity: 1; white-space: pre; opacity: 1;"
             transform="translate(0,374.87)"
             id="text66">£0.4£</text>
        </g>
        <g
           class="ytick"
           id="g68">
          <text
             text-anchor="end"
             x="65"
             y="4.199999999999999"
             style="font-family: 'Open Sans', verdana, arial, sans-serif; font-size: 12px; fill: rgb(42, 63, 95); fill-opacity: 1; white-space: pre; opacity: 1;"
             transform="translate(0,292.7)"
             id="text67">£0.6£</text>
        </g>
        <g
           class="ytick"
           id="g69">
          <text
             text-anchor="end"
             x="65"
             y="4.199999999999999"
             style="font-family: 'Open Sans', verdana, arial, sans-serif; font-size: 12px; fill: rgb(42, 63, 95); fill-opacity: 1; white-space: pre; opacity: 1;"
             transform="translate(0,210.52)"
             id="text68">£0.8£</text>
        </g>
        <g
           class="ytick"
           id="g70">
          <text
             text-anchor="end"
             x="65"
             y="4.199999999999999"
             style="font-family: 'Open Sans', verdana, arial, sans-serif; font-size: 12px; fill: rgb(42, 63, 95); fill-opacity: 1; white-space: pre; opacity: 1;"
             transform="translate(0,128.34)"
             id="text69">£1£</text>
        </g>
        <g
           class="ytick"
           id="g71">
          <text
             text-anchor="end"
             x="65"
             y="4.199999999999999"
             style="font-family: 'Open Sans', verdana, arial, sans-serif; font-size: 12px; fill: rgb(42, 63, 95); fill-opacity: 1; white-space: pre; opacity: 1;"
             transform="translate(0,46.16)"
             id="text70">£1.2£</text>
        </g>
      </g>
      <g
         class="overaxes-above"
         id="g73" />
    </g>
    <g
       class="subplot x2y2"
       id="g130">
      <rect
         class="bg"
         x="510"
         y="36.950000000000024"
         width="610.4999999999999"
         height="296.45"
         style="fill: rgb(255, 255, 255); fill-opacity: 1; stroke-width: 0;"
         id="rect74" />
      <g
         class="layer-subplot"
         id="g77">
        <g
           class="shapelayer"
           id="g75" />
        <g
           class="imagelayer"
           id="g76" />
      </g>
      <g
         class="minor-gridlayer"
         id="g80">
        <g
           class="x2"
           id="g78" />
        <g
           class="y2"
           id="g79" />
      </g>
      <g
         class="gridlayer"
         id="g93">
        <g
           class="x2"
           id="g86">
          <path
             class="x2grid crisp"
             transform="translate(591.45,0)"
             d="M0,36.950000000000024v296.45"
             style="stroke: rgb(0, 0, 0); stroke-opacity: 0.5; stroke-width: 1px;"
             id="path80" />
          <path
             class="x2grid crisp"
             transform="translate(672.91,0)"
             d="M0,36.950000000000024v296.45"
             style="stroke: rgb(0, 0, 0); stroke-opacity: 0.5; stroke-width: 1px;"
             id="path81" />
          <path
             class="x2grid crisp"
             transform="translate(754.36,0)"
             d="M0,36.950000000000024v296.45"
             style="stroke: rgb(0, 0, 0); stroke-opacity: 0.5; stroke-width: 1px;"
             id="path82" />
          <path
             class="x2grid crisp"
             transform="translate(835.8199999999999,0)"
             d="M0,36.950000000000024v296.45"
             style="stroke: rgb(0, 0, 0); stroke-opacity: 0.5; stroke-width: 1px;"
             id="path83" />
          <path
             class="x2grid crisp"
             transform="translate(917.27,0)"
             d="M0,36.950000000000024v296.45"
             style="stroke: rgb(0, 0, 0); stroke-opacity: 0.5; stroke-width: 1px;"
             id="path84" />
          <path
             class="x2grid crisp"
             transform="translate(998.73,0)"
             d="M0,36.950000000000024v296.45"
             style="stroke: rgb(0, 0, 0); stroke-opacity: 0.5; stroke-width: 1px;"
             id="path85" />
          <path
             class="x2grid crisp"
             transform="translate(1080.1799999999998,0)"
             d="M0,36.950000000000024v296.45"
             style="stroke: rgb(0, 0, 0); stroke-opacity: 0.5; stroke-width: 1px;"
             id="path86" />
        </g>
        <g
           class="y2"
           id="g92">
          <path
             class="y2grid crisp"
             transform="translate(0,277.97)"
             d="M510,0h610.4999999999999"
             style="stroke: rgb(0, 0, 0); stroke-opacity: 0.5; stroke-width: 1px;"
             id="path87" />
          <path
             class="y2grid crisp"
             transform="translate(0,235.35000000000002)"
             d="M510,0h610.4999999999999"
             style="stroke: rgb(0, 0, 0); stroke-opacity: 0.5; stroke-width: 1px;"
             id="path88" />
          <path
             class="y2grid crisp"
             transform="translate(0,192.73000000000002)"
             d="M510,0h610.4999999999999"
             style="stroke: rgb(0, 0, 0); stroke-opacity: 0.5; stroke-width: 1px;"
             id="path89" />
          <path
             class="y2grid crisp"
             transform="translate(0,150.10000000000002)"
             d="M510,0h610.4999999999999"
             style="stroke: rgb(0, 0, 0); stroke-opacity: 0.5; stroke-width: 1px;"
             id="path90" />
          <path
             class="y2grid crisp"
             transform="translate(0,107.48000000000002)"
             d="M510,0h610.4999999999999"
             style="stroke: rgb(0, 0, 0); stroke-opacity: 0.5; stroke-width: 1px;"
             id="path91" />
          <path
             class="y2grid crisp"
             transform="translate(0,64.86000000000003)"
             d="M510,0h610.4999999999999"
             style="stroke: rgb(0, 0, 0); stroke-opacity: 0.5; stroke-width: 1px;"
             id="path92" />
        </g>
      </g>
      <g
         class="zerolinelayer"
         id="g94">
        <path
           class="y2zl zl crisp"
           transform="translate(0,320.59000000000003)"
           d="M510,0h610.4999999999999"
           style="stroke: rgb(0, 0, 0); stroke-opacity: 0.5; stroke-width: 2px;"
           id="path93" />
      </g>
      <g
         class="layer-between"
         id="g97">
        <g
           class="shapelayer"
           id="g95" />
        <g
           class="imagelayer"
           id="g96" />
      </g>
      <path
         class="xlines-below"
         id="path97" />
      <path
         class="ylines-below"
         id="path98" />
      <g
         class="overlines-below"
         id="g98" />
      <g
         class="xaxislayer-below"
         id="g99" />
      <g
         class="yaxislayer-below"
         id="g100" />
      <g
         class="overaxes-below"
         id="g101" />
      <g
         class="overplot"
         id="g110">
        <g
           class="x2y2"
           transform="translate(510,36.950000000000024)"
           clip-path="url(#clip6f5a31x2y2plot)"
           id="g109">
          <g
             class="scatterlayer mlayer"
             id="g108">
            <g
               class="trace scatter trace17fb56"
               style="stroke-miterlimit: 2; opacity: 1;"
               id="g107">
              <g
                 class="fills"
                 id="g102" />
              <g
                 class="errorbars"
                 id="g103" />
              <g
                 class="lines"
                 id="g104">
                <path
                   class="js-line"
                   d="M0,14.82L2.04,159.18L2.44,168.72L5.29,205.76L5.7,209.18L9.77,234.09L10.18,235.96L15.07,253.22L15.48,254.31L20.36,264.48L20.77,265.13L26.07,271.54L26.47,271.91L32.58,275.94L32.99,276.13L41.13,278.63L41.54,278.71L54.57,279.97L54.98,279.98L79.83,280.21L80.23,280.2L285.5,280.68L285.9,280.69L319.3,279.84L319.71,279.79L335.18,277.3L335.59,277.22L363.69,270.04L364.1,269.94L381.21,266.35L381.61,266.29L395.05,265.32L395.46,265.32L410.12,266.29L410.53,266.34L431.71,269.93L432.12,270L465.51,275.68L465.92,275.73L490.76,278.36L491.17,278.39L534.75,280.6L535.15,280.61L610.5,281.63"
                   style="vector-effect: none; fill: none; stroke: rgb(99, 110, 250); stroke-opacity: 1; stroke-width: 4px; opacity: 1;"
                   id="path103" />
              </g>
              <g
                 class="points"
                 id="g105" />
              <g
                 class="text"
                 id="g106" />
            </g>
          </g>
        </g>
      </g>
      <path
         class="xlines-above crisp"
         d="M508,334.40000000000003H1122.5M508,35.950000000000024H1122.5"
         style="fill: none; stroke-width: 2px; stroke: rgb(133, 132, 131); stroke-opacity: 0.6;"
         id="path110" />
      <path
         class="ylines-above crisp"
         d="M509,36.950000000000024V333.40000000000003M1121.5,36.950000000000024V333.40000000000003"
         style="fill: none; stroke-width: 2px; stroke: rgb(133, 132, 131); stroke-opacity: 0.6;"
         id="path111" />
      <g
         class="overlines-above"
         id="g111" />
      <g
         class="xaxislayer-above"
         id="g120">
        <g
           class="x2tick"
           id="g112">
          <text
             text-anchor="middle"
             x="0"
             y="349.8"
             transform="translate(510,0)"
             style="font-family: 'Open Sans', verdana, arial, sans-serif; font-size: 12px; fill: rgb(42, 63, 95); fill-opacity: 1; white-space: pre; opacity: 1;"
             id="text111">£0£</text>
        </g>
        <g
           class="x2tick"
           id="g113">
          <text
             text-anchor="middle"
             x="0"
             y="349.8"
             style="font-family: 'Open Sans', verdana, arial, sans-serif; font-size: 12px; fill: rgb(42, 63, 95); fill-opacity: 1; white-space: pre; opacity: 1;"
             transform="translate(591.45,0)"
             id="text112">£0.2£</text>
        </g>
        <g
           class="x2tick"
           id="g114">
          <text
             text-anchor="middle"
             x="0"
             y="349.8"
             style="font-family: 'Open Sans', verdana, arial, sans-serif; font-size: 12px; fill: rgb(42, 63, 95); fill-opacity: 1; white-space: pre; opacity: 1;"
             transform="translate(672.91,0)"
             id="text113">£0.4£</text>
        </g>
        <g
           class="x2tick"
           id="g115">
          <text
             text-anchor="middle"
             x="0"
             y="349.8"
             style="font-family: 'Open Sans', verdana, arial, sans-serif; font-size: 12px; fill: rgb(42, 63, 95); fill-opacity: 1; white-space: pre; opacity: 1;"
             transform="translate(754.36,0)"
             id="text114">£0.6£</text>
        </g>
        <g
           class="x2tick"
           id="g116">
          <text
             text-anchor="middle"
             x="0"
             y="349.8"
             style="font-family: 'Open Sans', verdana, arial, sans-serif; font-size: 12px; fill: rgb(42, 63, 95); fill-opacity: 1; white-space: pre; opacity: 1;"
             transform="translate(835.8199999999999,0)"
             id="text115">£0.8£</text>
        </g>
        <g
           class="x2tick"
           id="g117">
          <text
             text-anchor="middle"
             x="0"
             y="349.8"
             style="font-family: 'Open Sans', verdana, arial, sans-serif; font-size: 12px; fill: rgb(42, 63, 95); fill-opacity: 1; white-space: pre; opacity: 1;"
             transform="translate(917.27,0)"
             id="text116">£1£</text>
        </g>
        <g
           class="x2tick"
           id="g118">
          <text
             text-anchor="middle"
             x="0"
             y="349.8"
             style="font-family: 'Open Sans', verdana, arial, sans-serif; font-size: 12px; fill: rgb(42, 63, 95); fill-opacity: 1; white-space: pre; opacity: 1;"
             transform="translate(998.73,0)"
             id="text117">£1.2£</text>
        </g>
        <g
           class="x2tick"
           id="g119">
          <text
             text-anchor="middle"
             x="0"
             y="349.8"
             style="font-family: 'Open Sans', verdana, arial, sans-serif; font-size: 12px; fill: rgb(42, 63, 95); fill-opacity: 1; white-space: pre; opacity: 1;"
             transform="translate(1080.1799999999998,0)"
             id="text118">£1.4£</text>
        </g>
      </g>
      <g
         class="yaxislayer-above"
         id="g128">
        <g
           class="y2tick"
           id="g121">
          <text
             text-anchor="end"
             x="505.6"
             y="4.199999999999999"
             transform="translate(0,320.59000000000003)"
             style="font-family: 'Open Sans', verdana, arial, sans-serif; font-size: 12px; fill: rgb(42, 63, 95); fill-opacity: 1; white-space: pre; opacity: 1;"
             id="text120">£0£</text>
        </g>
        <g
           class="y2tick"
           id="g122">
          <text
             text-anchor="end"
             x="505.6"
             y="4.199999999999999"
             style="font-family: 'Open Sans', verdana, arial, sans-serif; font-size: 12px; fill: rgb(42, 63, 95); fill-opacity: 1; white-space: pre; opacity: 1;"
             transform="translate(0,277.97)"
             id="text121">£0.2£</text>
        </g>
        <g
           class="y2tick"
           id="g123">
          <text
             text-anchor="end"
             x="505.6"
             y="4.199999999999999"
             style="font-family: 'Open Sans', verdana, arial, sans-serif; font-size: 12px; fill: rgb(42, 63, 95); fill-opacity: 1; white-space: pre; opacity: 1;"
             transform="translate(0,235.35000000000002)"
             id="text122">£0.4£</text>
        </g>
        <g
           class="y2tick"
           id="g124">
          <text
             text-anchor="end"
             x="505.6"
             y="4.199999999999999"
             style="font-family: 'Open Sans', verdana, arial, sans-serif; font-size: 12px; fill: rgb(42, 63, 95); fill-opacity: 1; white-space: pre; opacity: 1;"
             transform="translate(0,192.73000000000002)"
             id="text123">£0.6£</text>
        </g>
        <g
           class="y2tick"
           id="g125">
          <text
             text-anchor="end"
             x="505.6"
             y="4.199999999999999"
             style="font-family: 'Open Sans', verdana, arial, sans-serif; font-size: 12px; fill: rgb(42, 63, 95); fill-opacity: 1; white-space: pre; opacity: 1;"
             transform="translate(0,150.10000000000002)"
             id="text124">£0.8£</text>
        </g>
        <g
           class="y2tick"
           id="g126">
          <text
             text-anchor="end"
             x="505.6"
             y="4.199999999999999"
             style="font-family: 'Open Sans', verdana, arial, sans-serif; font-size: 12px; fill: rgb(42, 63, 95); fill-opacity: 1; white-space: pre; opacity: 1;"
             transform="translate(0,107.48000000000002)"
             id="text125">£1£</text>
        </g>
        <g
           class="y2tick"
           id="g127">
          <text
             text-anchor="end"
             x="505.6"
             y="4.199999999999999"
             style="font-family: 'Open Sans', verdana, arial, sans-serif; font-size: 12px; fill: rgb(42, 63, 95); fill-opacity: 1; white-space: pre; opacity: 1;"
             transform="translate(0,64.86000000000003)"
             id="text126">£1.2£</text>
        </g>
      </g>
      <g
         class="overaxes-above"
         id="g129" />
    </g>
  </g>
  <g
     class="polarlayer"
     id="g132" />
  <g
     class="smithlayer"
     id="g133" />
  <g
     class="ternarylayer"
     id="g134" />
  <g
     class="geolayer"
     id="g135" />
  <g
     class="funnelarealayer"
     id="g136" />
  <g
     class="pielayer"
     id="g137" />
  <g
     class="iciclelayer"
     id="g138" />
  <g
     class="treemaplayer"
     id="g139" />
  <g
     class="sunburstlayer"
     id="g140" />
  <g
     class="glimages"
     id="g141" />
  <defs
     id="topdefs-6f5a31">
    <g
       class="clips"
       id="g142" />
  </defs>
  <g
     class="layer-above"
     id="g148">
    <g
       class="imagelayer"
       id="g143" />
    <g
       class="shapelayer"
       id="g147">
      <g
         class="shape-group"
         data-index="0"
         clip-path="url(#clip6f5a31xy)"
         id="g144">
        <path
           data-index="0"
           fill-rule="evenodd"
           d="M66,535.34H107.6V20.93H66Z"
           style="opacity: 1; stroke: rgb(133, 132, 131); stroke-opacity: 0.6; fill: rgb(0, 0, 0); fill-opacity: 0; stroke-dasharray: 3px, 3px; stroke-width: 2px;"
           id="path143" />
      </g>
      <g
         class="shape-group"
         data-index="1"
         clip-path="url(#clip6f5a31xy)"
         id="g145">
        <path
           data-index="1"
           fill-rule="evenodd"
           d="M66,20.93L510,36.46"
           style="opacity: 1; stroke: rgb(133, 132, 131); stroke-opacity: 0.6; fill: rgb(0, 0, 0); fill-opacity: 0; stroke-dasharray: 3px, 3px; stroke-width: 2px;"
           id="path144" />
      </g>
      <g
         class="shape-group"
         data-index="2"
         clip-path="url(#clip6f5a31xy)"
         id="g146">
        <path
           data-index="2"
           fill-rule="evenodd"
           d="M107.6,535.34L1120.5,336.28"
           style="opacity: 1; stroke: rgb(133, 132, 131); stroke-opacity: 0.6; fill: rgb(0, 0, 0); fill-opacity: 0; stroke-dasharray: 3px, 3px; stroke-width: 2px;"
           id="path145" />
      </g>
    </g>
  </g>
  <g
     class="infolayer"
     id="g154">
    <g
       class="g-gtitle"
       id="g149" />
    <g
       class="g-xtitle"
       id="g150">
      <text
         class="xtitle"
         x="621"
         y="589.3"
         text-anchor="middle"
         style="opacity: 1; font-family: 'Open Sans', verdana, arial, sans-serif; font-size: 14px; fill: rgb(42, 63, 95); fill-opacity: 1; white-space: pre;"
         id="text149">Time (s)</text>
    </g>
    <g
       class="g-x2title"
       id="g151" />
    <g
       class="g-ytitle"
       id="g152">
      <text
         class="ytitle"
         transform="rotate(-90,15.56875,279.5)"
         x="15.56875"
         y="279.5"
         text-anchor="middle"
         style="font-size:14px;font-family:'Open Sans', verdana, arial, sans-serif;white-space:pre;opacity:1;fill:#2a3f5f;fill-opacity:1"
         id="text151">$\|\boldsymbol{\zeta}\|$</text>
    </g>
    <g
       class="g-y2title"
       id="g153" />
  </g>
</svg>
