<svg class="main-svg" xmlns="http://www.w3.org/2000/svg" xmlns:xlink="http://www.w3.org/1999/xlink" width="1200" height="600" style="" viewBox="0 0 1200 600"><rect x="0" y="0" width="1200" height="600" style="fill: rgb(255, 255, 255); fill-opacity: 1;"/><defs id="defs-05cf7d"><g class="clips"><clipPath id="clip05cf7dxyplot" class="plotclip"><rect width="1119" height="539"/></clipPath><clipPath class="axesclip" id="clip05cf7dx"><rect x="71" y="0" width="1119" height="600"/></clipPath><clipPath class="axesclip" id="clip05cf7dy"><rect x="0" y="10" width="1200" height="539"/></clipPath><clipPath class="axesclip" id="clip05cf7dxy"><rect x="71" y="10" width="1119" height="539"/></clipPath></g><g class="gradients"/><g class="patterns"/></defs><g class="bglayer"/><g class="layer-below"><g class="imagelayer"/><g class="shapelayer"/></g><g class="cartesianlayer"><g class="subplot xy"><g class="layer-subplot"><g class="shapelayer"/><g class="imagelayer"/></g><g class="minor-gridlayer"><g class="x"/><g class="y"/></g><g class="gridlayer"><g class="x"><path class="xgrid crisp" transform="translate(183.01,0)" d="M0,10v539" style="stroke: rgb(0, 0, 0); stroke-opacity: 0.5; stroke-width: 1px;"/><path class="xgrid crisp" transform="translate(295.02,0)" d="M0,10v539" style="stroke: rgb(0, 0, 0); stroke-opacity: 0.5; stroke-width: 1px;"/><path class="xgrid crisp" transform="translate(407.04,0)" d="M0,10v539" style="stroke: rgb(0, 0, 0); stroke-opacity: 0.5; stroke-width: 1px;"/><path class="xgrid crisp" transform="translate(519.05,0)" d="M0,10v539" style="stroke: rgb(0, 0, 0); stroke-opacity: 0.5; stroke-width: 1px;"/><path class="xgrid crisp" transform="translate(631.06,0)" d="M0,10v539" style="stroke: rgb(0, 0, 0); stroke-opacity: 0.5; stroke-width: 1px;"/><path class="xgrid crisp" transform="translate(743.07,0)" d="M0,10v539" style="stroke: rgb(0, 0, 0); stroke-opacity: 0.5; stroke-width: 1px;"/><path class="xgrid crisp" transform="translate(855.08,0)" d="M0,10v539" style="stroke: rgb(0, 0, 0); stroke-opacity: 0.5; stroke-width: 1px;"/><path class="xgrid crisp" transform="translate(967.1,0)" d="M0,10v539" style="stroke: rgb(0, 0, 0); stroke-opacity: 0.5; stroke-width: 1px;"/><path class="xgrid crisp" transform="translate(1079.1100000000001,0)" d="M0,10v539" style="stroke: rgb(0, 0, 0); stroke-opacity: 0.5; stroke-width: 1px;"/></g><g class="y"><path class="ygrid crisp" transform="translate(0,445.32)" d="M71,0h1119" style="stroke: rgb(0, 0, 0); stroke-opacity: 0.5; stroke-width: 1px;"/><path class="ygrid crisp" transform="translate(0,365.93)" d="M71,0h1119" style="stroke: rgb(0, 0, 0); stroke-opacity: 0.5; stroke-width: 1px;"/><path class="ygrid crisp" transform="translate(0,286.54)" d="M71,0h1119" style="stroke: rgb(0, 0, 0); stroke-opacity: 0.5; stroke-width: 1px;"/><path class="ygrid crisp" transform="translate(0,207.16)" d="M71,0h1119" style="stroke: rgb(0, 0, 0); stroke-opacity: 0.5; stroke-width: 1px;"/><path class="ygrid crisp" transform="translate(0,127.77)" d="M71,0h1119" style="stroke: rgb(0, 0, 0); stroke-opacity: 0.5; stroke-width: 1px;"/><path class="ygrid crisp" transform="translate(0,48.38)" d="M71,0h1119" style="stroke: rgb(0, 0, 0); stroke-opacity: 0.5; stroke-width: 1px;"/></g></g><g class="zerolinelayer"><path class="xzl zl crisp" transform="translate(71,0)" d="M0,10v539" style="stroke: rgb(0, 0, 0); stroke-opacity: 0.5; stroke-width: 2px;"/><path class="yzl zl crisp" transform="translate(0,524.71)" d="M71,0h1119" style="stroke: rgb(0, 0, 0); stroke-opacity: 0.5; stroke-width: 2px;"/></g><g class="layer-between"><g class="shapelayer"/><g class="imagelayer"/></g><path class="xlines-below"/><path class="ylines-below"/><g class="overlines-below"/><g class="xaxislayer-below"/><g class="yaxislayer-below"/><g class="overaxes-below"/><g class="overplot"><g class="xy" transform="translate(71,10)" clip-path="url(#clip05cf7dxyplot)"><g class="scatterlayer mlayer"><g class="trace scatter tracea87bee" style="stroke-miterlimit: 2; opacity: 1;"><g class="fills"/><g class="errorbars"/><g class="lines"><path class="js-line" d="M0,26.95L86.25,512.05L87.37,511.11L89.61,509L90.73,509.84L91.85,508.95L92.97,509.99L94.09,508.81L95.21,509.23L99.69,509.58L100.81,509.08L105.29,509.42L106.41,510.4L107.53,508.92L108.65,510.15L109.77,509.57L110.89,510.1L112.01,509.63L113.13,510.1L115.37,509.03L116.49,508.98L118.73,509.63L119.85,510.02L120.97,509.05L122.09,509.53L124.33,510.75L125.45,509.42L126.57,509.97L127.69,509.33L129.93,508.85L131.05,509.2L132.17,509.85L133.29,509.25L136.65,509.02L137.77,510.72L138.89,509.38L140.02,509.55L141.14,509.02L142.26,510L143.38,509.85L144.5,508.69L145.62,509.51L146.74,508.7L147.86,508.85L148.98,510.11L150.1,508.82L151.22,510.05L152.34,509.38L153.46,510.07L154.58,508.7L155.7,508.86L156.82,510.77L157.94,509.47L159.06,508.76L160.18,509.97L161.3,509.36L162.42,510.05L163.54,508.91L164.66,509.86L165.78,510.49L166.9,508.93L169.14,510.34L170.26,508.68L171.38,510.43L172.5,508.77L174.74,510.55L175.86,509.08L176.98,508.64L178.1,509.57L179.22,509.46L180.34,510.39L181.46,508.69L182.58,510.43L183.7,508.79L184.82,510.13L185.94,510.07L187.06,509.13L188.18,509.93L189.3,509.13L190.42,510.01L191.54,509.28L192.66,508.97L193.78,510.85L194.9,509.61L196.02,509.7L198.26,510.57L199.38,509.14L200.5,510.01L201.62,509.37L202.74,509.41L203.86,510.45L204.98,508.86L206.1,509.91L207.22,509.67L208.34,510.42L209.46,508.79L210.58,509.32L211.7,510.19L212.82,509.94L213.94,510.29L215.06,508.72L216.18,510.05L217.3,509.43L218.42,509.1L219.54,510.02L220.66,508.91L221.78,508.86L224.02,510.36L225.14,508.64L226.26,510.86L227.38,509.63L229.62,510.32L230.74,508.59L232.98,510.27L234.11,508.89L236.35,509.17L237.47,510.63L239.71,508.62L240.83,508.58L243.07,510.05L244.19,510.6L245.31,509.22L246.43,509.3L247.55,510.23L248.67,509.47L249.79,510.29L250.91,508.59L252.03,508.91L253.15,510.1L254.27,509.38L255.39,510.68L257.63,508.57L258.75,509.6L259.87,508.57L260.99,509.72L262.11,508.59L263.23,508.68L266.59,509.43L267.71,510.37L268.83,508.71L269.95,509.23L271.07,508.65L272.19,509.03L273.31,510.8L274.43,509.55L275.55,510.71L276.67,509.41L277.79,508.67L278.91,509.34L280.03,508.56L281.15,509.61L282.27,510.38L283.39,508.73L284.51,510.29L285.63,508.55L286.75,509.88L287.87,509.34L288.99,510.93L290.11,509.74L291.23,509.29L292.35,510.11L293.47,508.6L294.59,510.55L296.83,508.55L297.95,509.76L299.07,510.57L300.19,509.18L301.31,510.61L302.43,509.25L303.55,509.97L304.67,508.96L305.79,510.28L306.91,508.54L309.15,510.71L310.27,509.42L311.39,509.01L312.51,510.74L313.63,509.46L314.75,510.3L315.87,508.57L316.99,508.78L318.11,509.97L319.23,508.85L322.59,510.09L323.71,508.9L325.95,510.9L327.08,509.7L328.2,510.07L329.32,509.52L330.44,509.95L331.56,508.66L333.8,510.64L334.92,509.3L336.04,509.33L337.16,510.43L338.28,508.89L339.4,510.8L341.64,508.75L342.76,509.5L345,508.55L346.12,510.47L347.24,508.99L348.36,508.79L349.48,510.05L350.6,510.04L351.72,510.43L352.84,508.91L356.2,510.63L357.32,509.29L358.44,509.39L359.56,510.36L360.68,508.73L361.8,508.99L364.04,508.86L365.16,510.87L366.28,509.67L367.4,510.74L369.64,509.28L370.76,509.65L371.88,510.9L373,509.71L374.12,509.07L375.24,509.65L376.36,508.57L377.48,508.83L378.6,508.92L379.72,510.08L380.84,508.52L381.96,508.99L384.2,509.58L385.32,510.55L386.44,509.15L387.56,510.11L388.68,510.09L389.8,508.73L392.04,509.62L393.16,509.55L394.28,509.26L395.4,509.89L397.64,509.77L398.76,509.54L399.88,508.54L401,510.46L402.12,508.97L403.24,510.49L404.36,509.05L405.48,509.85L407.72,509.77L408.84,509.48L411.08,509.86L412.2,510.69L413.32,509.39L414.44,510.02L415.56,510.35L416.68,508.71L420.05,510.03L421.17,509.79L422.29,510.94L423.41,509.76L425.65,508.92L426.77,510.35L427.89,508.73L429.01,509.89L430.13,509.78L431.25,508.49L433.49,510.34L434.61,508.7L437.97,510.3L439.09,508.6L440.21,510.19L441.33,508.74L443.57,510.44L444.69,508.95L445.81,510.4L446.93,508.85L450.29,510.82L451.41,509.61L454.77,508.82L455.89,510.85L458.13,508.84L459.25,510.5L460.37,509.08L461.49,510.07L463.73,508.77L464.85,509.78L465.97,508.52L467.09,509.58L469.33,510.44L470.45,508.96L471.57,509.09L472.69,510.1L473.81,510.99L474.93,509.84L476.05,510.71L477.17,509.44L479.41,508.7L480.53,509.73L482.77,510.64L483.89,509.33L486.13,508.49L487.25,508.84L488.37,511.03L489.49,509.88L490.61,509.38L491.73,510.48L492.85,509.03L493.97,509.4L495.09,510.31L496.21,508.65L498.45,510.31L499.57,508.65L500.69,509.06L501.81,510.5L504.05,508.71L505.17,510.07L507.41,509.44L508.53,508.49L509.65,508.87L510.77,510.21L511.89,508.45L513.02,509.96L514.14,510.9L515.26,509.71L516.38,510.34L517.5,508.75L518.62,509.88L519.74,509.28L520.86,509.01L521.98,509.75L523.1,508.45L524.22,509.91L525.34,510.83L526.46,509.62L527.58,509.69L528.7,510.74L529.82,509.49L530.94,509.65L532.06,508.68L533.18,509.88L534.3,508.91L535.42,509.03L537.66,509.19L538.78,510.41L539.9,508.9L541.02,509.78L542.14,508.48L543.26,510.45L544.38,508.99L545.5,510.22L546.62,508.45L547.74,509.83L548.86,510.83L549.98,509.63L551.1,510.78L552.22,509.55L553.34,510.16L554.46,508.65L555.58,508.98L556.7,510.26L557.82,508.54L558.94,509.92L560.06,509.07L561.18,510.08L562.3,511.07L563.42,509.94L564.54,510.65L565.66,509.36L566.78,510.53L567.9,509.16L569.02,510.02L570.14,508.47L571.26,511.08L572.38,509.95L573.5,510.97L574.62,509.81L575.74,510.85L576.86,509.66L577.98,510.23L579.1,508.48L580.22,510.98L581.34,509.82L582.46,510.84L583.58,509.64L584.7,508.67L585.82,510.05L586.94,510.21L588.06,508.44L590.3,510.94L591.42,509.77L592.54,509.46L593.66,510.77L594.78,509.54L595.9,510.28L597.02,508.6L598.14,509.02L599.26,508.9L600.38,510.88L601.5,509.69L602.62,510.45L603.74,508.99L604.86,509.7L608.23,509.37L609.35,510.44L610.47,508.97L611.59,510.15L612.71,508.6L613.83,508.45L617.19,509.66L618.31,510.76L619.43,509.53L620.55,510.59L622.79,508.43L623.91,509.8L625.03,510.87L626.15,509.68L627.27,510.47L628.39,509.04L629.51,508.66L630.63,509.98L631.75,509.52L632.87,510.55L633.99,509.19L635.11,510L636.23,508.78L637.35,508.72L638.47,509.72L639.59,508.83L640.71,510.76L641.83,509.52L642.95,510.58L644.07,509.25L645.19,509.47L646.31,508.72L648.55,510.39L649.67,508.88L650.79,509.15L651.91,510.38L653.03,508.87L654.15,509.4L655.27,508.41L656.39,510.07L657.51,511.02L658.63,509.88L659.75,510.91L660.87,509.73L661.99,510.6L663.11,509.28L664.23,508.82L665.35,510.03L667.59,508.56L668.71,508.41L669.83,509.99L670.95,508.87L672.07,510.9L673.19,509.72L674.31,508.4L675.43,510.1L677.67,508.7L678.79,510.03L681.03,508.48L682.15,509.77L685.51,508.5L686.63,510.28L687.75,508.63L688.87,509.35L689.99,510.52L691.11,509.15L692.23,510.46L693.35,509.03L694.47,510L695.59,508.52L697.83,510.35L698.95,508.8L700.08,510.55L701.2,509.19L702.32,509.57L703.44,508.98L706.8,509.7L707.92,508.98L710.16,510.46L711.28,509.03L715.76,510.65L716.88,509.35L718,510.27L719.12,508.6L720.24,510.1L721.36,509.33L722.48,510.55L723.6,509.2L724.72,509.27L725.84,510.68L726.96,509.41L728.08,510.8L730.32,508.54L731.44,509.72L732.56,510.9L733.68,509.73L734.8,508.68L735.92,510.15L737.04,508.46L738.16,510.75L739.28,509.52L740.4,510.27L741.52,508.61L742.64,508.77L743.76,510.6L744.88,509.29L747.12,509.22L748.24,510.63L749.36,509.33L750.48,510.59L751.6,509.26L752.72,510.68L754.96,509.23L756.08,509.22L757.2,508.65L758.32,510.18L759.44,508.4L760.56,509.94L761.68,510.54L762.8,509.18L765.04,510.37L766.16,508.86L767.28,510.42L768.4,508.97L769.52,509.83L770.64,509.37L771.76,509.5L772.88,510.7L774,509.44L775.12,510.86L776.24,509.67L777.36,510.39L778.48,508.9L779.6,509.8L780.72,510.78L781.84,509.56L782.96,508.95L784.08,510.2L785.2,508.43L786.32,508.4L788.56,510.91L789.68,509.73L790.8,510.42L791.92,508.95L793.05,510.15L794.17,508.44L795.29,508.64L796.41,510.08L798.65,509.13L799.77,510.37L800.89,508.85L802.01,509.31L803.13,510.18L804.25,508.4L805.37,510.01L806.49,508.89L808.73,510.19L809.85,508.41L812.09,510.56L813.21,509.22L814.33,510.67L815.45,509.39L816.57,508.4L817.69,509.86L818.81,508.61L819.93,509L822.17,508.4L823.29,510.04L824.41,510.81L825.53,509.59L826.65,510.67L827.77,509.4L828.89,510.33L830.01,508.76L831.13,509.01L832.25,510.14L833.37,508.54L834.49,510.08L837.85,510.11L838.97,509.05L840.09,510.34L841.21,508.79L843.45,510.29L844.57,508.66L845.69,510.23L846.81,508.49L847.93,510.6L849.05,509.28L850.17,509.84L851.29,508.97L852.41,509.83L853.53,509.3L854.65,509.39L855.77,508.41L856.89,509.6L858.01,508.96L860.25,510.29L861.37,508.65L862.49,510.14L863.61,508.49L864.73,510.39L865.85,508.9L868.09,510.81L869.21,509.6L870.33,508.52L871.45,511L873.69,508.49L874.81,508.42L877.05,510.24L878.17,508.53L880.41,510.6L881.53,509.28L882.65,508.67L883.77,510.22L884.89,508.47L886.02,509.49L887.14,510.69L888.26,509.42L889.38,510.42L890.5,508.96L892.74,510.61L893.86,509.3L896.1,510.65L897.22,509.37L898.34,509.44L899.46,510.43L900.58,508.98L901.7,509.23L902.82,509.39L903.94,508.4L905.06,509.69L906.18,509.07L907.3,509.76L908.42,509.16L909.54,510.39L910.66,508.9L911.78,509.56L912.9,508.67L914.02,510.24L915.14,508.54L916.26,510.37L917.38,508.86L918.5,511L919.62,509.86L920.74,508.7L921.86,509.76L924.1,510.38L925.22,508.87L926.34,508.39L927.46,510.14L928.58,508.47L929.7,508.46L930.82,510.45L931.94,509.02L933.06,510.36L934.18,508.83L935.3,510.22L936.42,508.49L938.66,510.77L939.78,509.54L940.9,508.83L942.02,510.26L943.14,508.59L944.26,510.8L945.38,509.59L946.5,509.99L947.62,508.49L948.74,508.67L949.86,510.2L950.98,508.44L952.1,511L953.22,509.85L954.34,508.44L955.46,508.73L956.58,508.65L957.7,510.2L958.82,508.44L959.94,509.95L961.06,510.12L962.18,508.64L963.3,510.08L964.42,509.97L965.54,509.22L966.66,509.83L967.78,509.17L968.9,510.06L970.02,510.87L971.14,509.69L973.38,508.85L974.5,510.58L975.62,509.25L976.74,510.93L978.98,509.66L980.11,510.36L981.23,508.83L982.35,510.49L984.59,508.79L985.71,510.08L986.83,510.11L987.95,508.84L989.07,508.4L990.19,509.61L991.31,508.95L992.43,510.06L993.55,510.88L994.67,509.7L995.79,508.55L996.91,509.5L998.03,510.6L999.15,509.28L1000.27,508.57L1001.39,510.38L1002.51,508.88L1003.63,508.73L1005.87,508.66L1006.99,510.26L1008.11,508.59L1009.23,508.43L1011.47,508.4L1012.59,509.96L1014.83,508.44L1015.95,508.99L1019.31,508.48L1020.43,509.91L1021.55,510.79L1022.67,509.58L1023.79,508.39L1024.91,510.03L1026.03,510.44L1027.15,509L1028.27,508.41L1029.39,509.29L1030.51,508.62L1031.63,509.46L1032.75,508.52L1033.87,510.71L1036.11,508.87L1037.23,509.75L1038.35,508.89L1039.47,509.19L1041.71,508.94L1042.83,510.35L1043.95,508.81L1045.07,509.71L1047.31,510.19L1048.43,508.4L1049.55,509.68L1050.67,509.79L1051.79,510.83L1052.91,509.62L1055.15,511.05L1056.27,509.91L1057.39,510.96L1058.51,509.8L1059.63,510.68L1060.75,509.41L1061.87,510.83L1062.99,509.63L1064.11,510.56L1065.23,509.21L1067.47,509.74L1068.59,508.68L1069.71,510.16L1070.83,508.4L1073.08,510.54L1074.2,509.18L1075.32,509.71L1076.44,508.4L1077.56,509.83L1078.68,509.26L1079.8,510.67L1080.92,509.4L1083.16,508.66L1084.28,510.26L1085.4,508.59L1086.52,509L1087.64,508.84L1088.76,509.75L1089.88,508.43L1091,508.44L1093.24,510.49L1094.36,509.09L1095.48,509.49L1096.6,510.71L1098.84,508.52L1099.96,508.55L1102.2,510.61L1103.32,509.3L1105.56,510.48L1106.68,509.08L1107.8,508.83L1108.92,510.46L1110.04,509.05L1111.16,509.08L1113.4,509.46L1114.52,508.67L1115.64,510.25L1116.76,508.57L1117.88,510.2L1119,508.44" style="vector-effect: none; fill: none; stroke: rgb(99, 110, 250); stroke-opacity: 1; stroke-width: 3px; opacity: 1;"/></g><g class="points"/><g class="text"/></g></g></g></g><path class="xlines-above crisp" d="M0,0" style="fill: none;"/><path class="ylines-above crisp" d="M0,0" style="fill: none;"/><g class="overlines-above"/><g class="xaxislayer-above"><g class="xtick"><text text-anchor="middle" x="0" y="562" transform="translate(71,0)" style="font-family: 'Open Sans', verdana, arial, sans-serif; font-size: 12px; fill: rgb(42, 63, 95); fill-opacity: 1; white-space: pre; opacity: 1;">£0£</text></g><g class="xtick"><text text-anchor="middle" x="0" y="562" style="font-family: 'Open Sans', verdana, arial, sans-serif; font-size: 12px; fill: rgb(42, 63, 95); fill-opacity: 1; white-space: pre; opacity: 1;" transform="translate(183.01,0)">£2£</text></g><g class="xtick"><text text-anchor="middle" x="0" y="562" style="font-family: 'Open Sans', verdana, arial, sans-serif; font-size: 12px; fill: rgb(42, 63, 95); fill-opacity: 1; white-space: pre; opacity: 1;" transform="translate(295.02,0)">£4£</text></g><g class="xtick"><text text-anchor="middle" x="0" y="562" style="font-family: 'Open Sans', verdana, arial, sans-serif; font-size: 12px; fill: rgb(42, 63, 95); fill-opacity: 1; white-space: pre; opacity: 1;" transform="translate(407.04,0)">£6£</text></g><g class="xtick"><text text-anchor="middle" x="0" y="562" style="font-family: 'Open Sans', verdana, arial, sans-serif; font-size: 12px; fill: rgb(42, 63, 95); fill-opacity: 1; white-space: pre; opacity: 1;" transform="translate(519.05,0)">£8£</text></g><g class="xtick"><text text-anchor="middle" x="0" y="562" style="font-family: 'Open Sans', verdana, arial, sans-serif; font-size: 12px; fill: rgb(42, 63, 95); fill-opacity: 1; white-space: pre; opacity: 1;" transform="translate(631.06,0)">£10£</text></g><g class="xtick"><text text-anchor="middle" x="0" y="562" style="font-family: 'Open Sans', verdana, arial, sans-serif; font-size: 12px; fill: rgb(42, 63, 95); fill-opacity: 1; white-space: pre; opacity: 1;" transform="translate(743.07,0)">£12£</text></g><g class="xtick"><text text-anchor="middle" x="0" y="562" style="font-family: 'Open Sans', verdana, arial, sans-serif; font-size: 12px; fill: rgb(42, 63, 95); fill-opacity: 1; white-space: pre; opacity: 1;" transform="translate(855.08,0)">£14£</text></g><g class="xtick"><text text-anchor="middle" x="0" y="562" style="font-family: 'Open Sans', verdana, arial, sans-serif; font-size: 12px; fill: rgb(42, 63, 95); fill-opacity: 1; white-space: pre; opacity: 1;" transform="translate(967.1,0)">£16£</text></g><g class="xtick"><text text-anchor="middle" x="0" y="562" style="font-family: 'Open Sans', verdana, arial, sans-serif; font-size: 12px; fill: rgb(42, 63, 95); fill-opacity: 1; white-space: pre; opacity: 1;" transform="translate(1079.1100000000001,0)">£18£</text></g></g><g class="yaxislayer-above"><g class="ytick"><text text-anchor="end" x="70" y="4.199999999999999" transform="translate(0,524.71)" style="font-family: 'Open Sans', verdana, arial, sans-serif; font-size: 12px; fill: rgb(42, 63, 95); fill-opacity: 1; white-space: pre; opacity: 1;">£0£</text></g><g class="ytick"><text text-anchor="end" x="70" y="4.199999999999999" style="font-family: 'Open Sans', verdana, arial, sans-serif; font-size: 12px; fill: rgb(42, 63, 95); fill-opacity: 1; white-space: pre; opacity: 1;" transform="translate(0,445.32)">£0.5£</text></g><g class="ytick"><text text-anchor="end" x="70" y="4.199999999999999" style="font-family: 'Open Sans', verdana, arial, sans-serif; font-size: 12px; fill: rgb(42, 63, 95); fill-opacity: 1; white-space: pre; opacity: 1;" transform="translate(0,365.93)">£1£</text></g><g class="ytick"><text text-anchor="end" x="70" y="4.199999999999999" style="font-family: 'Open Sans', verdana, arial, sans-serif; font-size: 12px; fill: rgb(42, 63, 95); fill-opacity: 1; white-space: pre; opacity: 1;" transform="translate(0,286.54)">£1.5£</text></g><g class="ytick"><text text-anchor="end" x="70" y="4.199999999999999" style="font-family: 'Open Sans', verdana, arial, sans-serif; font-size: 12px; fill: rgb(42, 63, 95); fill-opacity: 1; white-space: pre; opacity: 1;" transform="translate(0,207.16)">£2£</text></g><g class="ytick"><text text-anchor="end" x="70" y="4.199999999999999" style="font-family: 'Open Sans', verdana, arial, sans-serif; font-size: 12px; fill: rgb(42, 63, 95); fill-opacity: 1; white-space: pre; opacity: 1;" transform="translate(0,127.77)">£2.5£</text></g><g class="ytick"><text text-anchor="end" x="70" y="4.199999999999999" style="font-family: 'Open Sans', verdana, arial, sans-serif; font-size: 12px; fill: rgb(42, 63, 95); fill-opacity: 1; white-space: pre; opacity: 1;" transform="translate(0,48.38)">£3£</text></g></g><g class="overaxes-above"/></g></g><g class="polarlayer"/><g class="smithlayer"/><g class="ternarylayer"/><g class="geolayer"/><g class="funnelarealayer"/><g class="pielayer"/><g class="iciclelayer"/><g class="treemaplayer"/><g class="sunburstlayer"/><g class="glimages"/><defs id="topdefs-05cf7d"><g class="clips"/></defs><g class="layer-above"><g class="imagelayer"/><g class="shapelayer"/></g><g class="infolayer"><g class="g-gtitle"/><g class="g-xtitle"><text class="xtitle" x="630.5" y="589.3" text-anchor="middle" style="opacity: 1; font-family: 'Open Sans', verdana, arial, sans-serif; font-size: 14px; fill: rgb(42, 63, 95); fill-opacity: 1; white-space: pre;">Coordinate Time £t£</text></g><g class="g-ytitle"><text class="ytitle" transform="rotate(-90,15.568750000000001,279.5)" x="15.568750000000001" y="279.5" text-anchor="middle" style="opacity: 1; font-family: 'Open Sans', verdana, arial, sans-serif; font-size: 14px; fill: rgb(42, 63, 95); fill-opacity: 1; white-space: pre;">Distance £D£</text></g></g></svg>